<?xml version="1.0" encoding="utf-8"?>
<!-- Generator: Adobe Illustrator 15.0.0, SVG Export Plug-In . SVG Version: 6.00 Build 0)  -->
<!DOCTYPE svg PUBLIC "-//W3C//DTD SVG 1.1//EN" "http://www.w3.org/Graphics/SVG/1.1/DTD/svg11.dtd">
<svg version="1.1" id="Layer_1" xmlns="http://www.w3.org/2000/svg" xmlns:xlink="http://www.w3.org/1999/xlink" x="0px" y="0px"
	 width="1000px" height="1000px" viewBox="0 0 1000 1000" enable-background="new 0 0 1000 1000" xml:space="preserve">
<path fill="#4D4D4D" stroke="#4D4D4D" stroke-width="29.16" stroke-miterlimit="10" d="M63.074,496.418
	c-0.189,1.822-0.493,3.569-0.455,5.354c0,1.918,0.341,3.758,0.626,5.676c0.209,1.804,0.399,3.551,0.893,5.354
	c0.494,1.765,1.291,3.417,2.05,5.126c0.588,1.385,0.911,2.866,1.632,4.213c0.266,0.399,0.646,0.684,0.835,1.084
	c0.228,0.303,0.285,0.739,0.494,1.081l255.15,393.659c12.72,19.649,39.146,25.345,59.022,12.759
	c19.877-12.53,25.648-38.596,12.928-58.206h0.039L182.846,543.328l72.805-0.513l639.318-3.986
	c23.597-0.171,42.562-19.137,42.411-42.43c-0.076-10.043-3.797-19.118-9.797-26.312c-7.896-9.568-19.725-15.738-33.184-15.605
	l-677.971,4.196l-34.096,0.228L391.542,127.02c12.491-19.781,6.341-45.752-13.688-58.092c-7.119-4.347-15.036-6.397-22.8-6.34
	c-14.2,0.076-28.021,7.1-36.089,19.876h0.057L68.826,479.313c-0.208,0.322-0.247,0.702-0.437,1.082
	c-0.247,0.379-0.607,0.626-0.816,1.082c-0.74,1.367-1.082,2.848-1.652,4.31c-0.683,1.671-1.424,3.322-1.936,5.031
	C63.473,492.659,63.359,494.52,63.074,496.418z"/>
</svg>
