<?xml version="1.0" encoding="utf-8"?>
<!-- Generator: Adobe Illustrator 15.0.0, SVG Export Plug-In . SVG Version: 6.00 Build 0)  -->
<!DOCTYPE svg PUBLIC "-//W3C//DTD SVG 1.1//EN" "http://www.w3.org/Graphics/SVG/1.1/DTD/svg11.dtd">
<svg version="1.1" id="Your_Icon" xmlns="http://www.w3.org/2000/svg" xmlns:xlink="http://www.w3.org/1999/xlink" x="0px" y="0px"
	 width="100px" height="100px" viewBox="0 0 100 100" enable-background="new 0 0 100 100" xml:space="preserve">
<path fill="#464646" stroke="#464646" stroke-miterlimit="10" d="M96.07,30.537c-2.521-5.955-6.123-11.301-10.715-15.892
	c-4.592-4.592-9.939-8.197-15.895-10.715C63.298,1.322,56.749,0,50,0c-6.75,0-13.298,1.322-19.463,3.93
	c-1.581,0.669-3.117,1.416-4.609,2.236c-0.255,0.125-0.512,0.251-0.771,0.385c-0.09,0.046-0.167,0.109-0.231,0.18
	c-3.74,2.17-7.184,4.816-10.282,7.915c-4.591,4.591-8.196,9.938-10.715,15.892C1.322,36.703,0,43.251,0,50s1.322,13.298,3.93,19.463
	c1.836,4.342,4.252,8.357,7.206,11.996c0.45,0.613,0.749,0.869,1.094,1.305c0.772,0.889,1.577,1.754,2.415,2.592
	c4.591,4.593,9.938,8.196,15.893,10.715C36.702,98.678,43.25,100,50,100c6.749,0,13.298-1.322,19.462-3.93
	c5.954-2.52,11.302-6.123,15.894-10.715c4.593-4.592,8.195-9.938,10.715-15.894C98.677,63.298,100,56.749,100,50
	S98.677,36.703,96.07,30.537z M80.286,87.141c-17.574,9.213-28.734,6.817-29.142,6.725c-0.617-1.609-1.8-4.727-2.479-6.641
	c1.783-0.683,7.893-3.651,15.641-14.428c0.047-0.064,0.078-0.137,0.104-0.21c0.864,0.142,2.011,0.215,3.378,0.215
	c4.395,0,9.993-0.715,12.287-1.507c0.002,0.001,0.002,0.004,0.004,0.006c2.732,4.445,3.361,9.578,3.475,10.738
	C82.823,83.328,81.141,85.866,80.286,87.141z M24.05,59.49l12.727-12.359c0.079,0.063,0.168,0.113,0.269,0.145
	c0.168,0.053,16.874,5.283,21.956,7.215c0.098,0.036,0.196,0.055,0.294,0.055c0.03,0,0.06-0.004,0.086-0.007l3.856,16.523
	c0,0,0.003,0.399-0.272,0.77C54.32,83.854,47.797,85.781,47.717,85.805c-0.083,0.021-0.158,0.06-0.227,0.104
	c-0.222,0.008-0.446,0.012-0.669,0.012c-7.716,0-14.936-4.195-17.588-5.929c-0.12-0.078-0.4-0.433-0.471-0.526
	c-0.056-0.074-5.595-7.671-4.9-19.084C23.874,60.176,24.05,59.49,24.05,59.49z M25.449,8.104c0.03,0.004,0.059,0.006,0.088,0.006
	c0.127,0,0.257-0.029,0.378-0.093C38.057,1.76,47.13,6.356,47.238,6.413c0.028,0.015,0.058,0.023,0.086,0.035l1.479,6.537
	C39.14,17.543,32.56,26.711,32.28,27.104c-0.054,0.077-0.09,0.159-0.115,0.244c-0.934-0.136-2.602-0.327-4.618-0.327
	c-3.12,0-7.511,0.464-11.235,2.588c-0.317-1.36-1.372-6.623-0.039-11.452c1.079-1.716,3.274-4.886,5.809-7.765
	c0.032-0.035,0.033-0.087,0.006-0.126C23.178,9.502,24.299,8.781,25.449,8.104z M73.303,41.414
	c-4.154,2.437-11.416,9.566-13.504,11.652c-0.062-0.049-0.13-0.092-0.209-0.121c-5.128-1.948-21.882-7.193-22.05-7.247
	c-0.11-0.035-0.222-0.044-0.33-0.033L33.351,28.85c0,0-0.12-0.313,0.277-0.789c0.067-0.094,6.798-9.475,16.299-13.775
	c0.029-0.013,0.053-0.031,0.08-0.047c2.235,0.036,9.128,0.669,18.32,6.362c0.013,0.039,0.024,0.077,0.042,0.114
	c5.988,12.177,4.896,20.194,4.884,20.278C73.23,41.141,73.252,41.284,73.303,41.414z M86.636,50.518
	c-0.098,0.004-0.19,0.028-0.276,0.064c-2.492-4.077-8.281-7.974-11.486-9.282c0.005-0.02,0.012-0.039,0.016-0.06
	c0.051-0.339,1.176-8.386-4.837-20.838c0.955-0.687,2.075-1.438,3.171-2.17c1.236-0.829,2.508-1.681,3.519-2.427
	c2.599,1.414,13.767,8.103,18.457,20.845c0.024,0.07,0.061,0.133,0.102,0.191c0.077,1.425,0.207,4.31,0.171,6.647
	c-0.017,0.026-0.035,0.053-0.048,0.082C93.484,47.958,88.672,50.425,86.636,50.518z M50,1.446c21.012,0,38.904,13.348,45.666,32.025
	c-2.992-6.491-7.488-11.197-10.924-14.113c-4.172-3.538-7.633-5.233-7.829-5.329C74.52,10.104,66.469,3.271,56.577,3.271
	c-2.879,0-5.737,0.58-8.508,1.719c-0.02-0.013-0.038-0.028-0.06-0.04c-0.255-0.135-4.252-2.186-10.503-1.879
	C41.493,2.013,45.68,1.446,50,1.446z M11.473,20.453c0.018,0.014,0.039,0.023,0.061,0.023c0.012,0,0.024-0.001,0.035-0.006
	c1.115-0.396,2.021-0.718,2.714-0.962c-0.942,5.431,0.452,10.634,0.519,10.876c0.05,0.181,0.198,0.604,0.15,0.689
	c-2.28,4.104-4.684,10.683-4.822,17.387c-0.074,0.01-0.148,0.025-0.22,0.055c-3.237,1.342-5.847,4.422-7.07,6.066
	c-0.369-0.478-0.774-1.032-1.217-1.667c-0.021-0.03-0.1-0.184-0.103-0.254C1.473,51.777,1.446,50.893,1.446,50
	C1.446,38.881,5.186,28.637,11.473,20.453z M3.137,62.355c0-0.039,0.058-3.627,0.446-5.965c0.549-0.818,3.4-4.875,6.96-6.352
	c0.028-0.012,0.053-0.027,0.079-0.042c1.973,2.438,7.906,7.653,11.532,9.931c0.042,0.026,0.063,0.254,0.058,0.353
	c-0.652,10.71,3.792,18.061,4.956,19.788c-1.243,1.16-3.549,3.299-4.992,4.56c-0.248,0.083-0.683,0.108-1.023,0.124
	c-1.049,0.046-3.753-0.285-8.477-3.697c-4.359-5.234-7.638-11.398-9.495-18.15C3.14,62.753,3.136,62.402,3.137,62.355z
	 M20.948,86.414c0.341,0,0.614-0.03,0.83-0.068c1.311,2.018,4.519,5.756,4.985,6.297c-3.654-1.998-7.022-4.449-10.03-7.279
	C18.643,86.199,20.028,86.414,20.948,86.414z M50,98.555c-2.819,0-5.581-0.244-8.268-0.705c3.68-0.259,7.306-1.701,8.907-2.418
	c0.032,0.012,0.062,0.025,0.096,0.034c0.176,0.044,1.812,0.431,4.72,0.431c4.269,0,11.276-0.834,20.416-4.805
	C68.379,95.816,59.51,98.555,50,98.555z M88.136,80.055c-0.028-0.021-0.062-0.033-0.096-0.021c-0.938,0.321-2.101,0.682-2.942,0.936
	c-0.281-2.088-1.136-6.512-3.608-10.534c-0.063-0.104-0.146-0.186-0.24-0.248c4.921-9.707,5.127-12.802,5.433-17.424
	c0.012-0.195,0.024-0.395,0.039-0.596c2.285-0.107,7.188-2.476,9.674-6.861c1.092,1.777,2.051,4.688,2.062,4.726
	c0.014,0.043,0.098,0.346,0.095,0.484C98.434,61.665,94.561,71.913,88.136,80.055z"/>
</svg>
