<?xml version="1.0" encoding="utf-8"?>
<!-- Generator: Adobe Illustrator 15.0.0, SVG Export Plug-In . SVG Version: 6.00 Build 0)  -->
<!DOCTYPE svg PUBLIC "-//W3C//DTD SVG 1.1//EN" "http://www.w3.org/Graphics/SVG/1.1/DTD/svg11.dtd">
<svg version="1.1" id="Your_Icon" xmlns="http://www.w3.org/2000/svg" xmlns:xlink="http://www.w3.org/1999/xlink" x="0px" y="0px"
	 width="100px" height="100px" viewBox="0 0 100 100" enable-background="new 0 0 100 100" xml:space="preserve">
<g>
	<path fill="#464646" stroke="#464646" stroke-miterlimit="10" d="M99.282,34.95L82.225,17.89l-0.123,0.051v-0.163H0v4.901h0.014
		v40.75l0.718,1.733l17.06,17.058h4.185V64.021h56.31l0.474,1.144l17.06,17.058H100v-45.54L99.282,34.95z M82.943,25.54l8.688,8.691
		h-8.688V25.54z M78.04,22.68v11.552H20.538L8.986,22.68H78.04z M17.074,59.119H4.916V25.54l12.158,12.158V59.119z M17.074,74.57
		L6.521,64.021h10.553V74.57z M21.976,39.133H78.04v19.986H21.976V39.133z M82.943,62.414V39.133H95.1V74.57L82.943,62.414z"/>
	<g>
		<polygon fill="#464646" stroke="#464646" stroke-miterlimit="10" points="19.739,65.337 21.646,63.43 19.739,63.43 		"/>
		<polygon fill="none" points="25.639,62.261 24.228,60.852 22.817,62.261 22.817,62.259 21.646,63.43 26.811,63.43 25.64,62.259 		
			"/>
		<polygon fill="none" points="62.136,22.836 62.189,22.889 60.831,24.248 66.018,29.434 66.02,29.433 67.409,30.824 74.064,24.184 
			69.504,19.624 65.35,19.624 		"/>
		<polygon fill="none" points="58.779,22.195 61.355,19.624 56.207,19.624 		"/>
		<polygon fill="none" points="84.707,30.843 86.117,29.433 86.118,29.434 88.316,27.233 81.669,20.585 78.059,24.194 		"/>
		<polygon fill="none" points="93.318,39.455 96.934,35.849 90.359,29.277 86.75,32.888 		"/>
		<polygon fill="none" points="78.636,19.624 73.486,19.624 76.061,22.195 		"/>
		<polygon fill="none" points="79.305,53.439 82.624,50.127 76.066,43.57 70.83,48.809 69.471,50.167 72.84,53.536 72.788,53.587 
			76.066,56.866 79.398,53.534 		"/>
		<polygon fill="none" points="41.509,22.204 43.876,19.837 44.09,19.624 38.928,19.624 		"/>
		<polygon fill="none" points="67.427,34.93 60.831,41.526 62.189,42.885 62.189,42.886 67.427,48.124 74.023,41.526 		"/>
		<polygon fill="none" points="89.943,60.165 91.305,58.807 86.117,53.619 84.707,52.209 78.059,58.857 84.67,65.47 89.967,60.186 
					"/>
		<polygon fill="none" points="26.221,24.194 32.869,30.843 34.279,29.433 39.465,24.248 38.106,22.889 38.159,22.836 
			34.946,19.624 30.792,19.624 		"/>
		<polygon fill="none" points="97.766,43.902 97.766,39.149 95.391,41.526 		"/>
		<polygon fill="none" points="74.075,58.857 67.427,52.211 60.831,58.807 62.189,60.165 62.139,60.217 62.189,60.271 65.35,63.43 
			69.504,63.43 		"/>
		<polygon fill="none" points="60.199,62.261 58.787,60.85 56.207,63.43 61.368,63.43 		"/>
		<polygon fill="none" points="84.67,48.086 91.271,41.497 84.707,34.931 78.111,41.526 		"/>
		<polygon fill="none" points="77.477,62.261 76.066,60.852 74.656,62.261 74.654,62.259 73.484,63.43 78.648,63.43 77.479,62.259 
					"/>
		<polygon fill="none" points="96.75,77.547 95.786,78.509 97.766,80.488 97.766,73.708 95.338,76.136 		"/>
		<polygon fill="none" points="55.406,60.186 55.385,60.165 56.744,58.807 52.673,54.734 50.147,52.209 43.552,58.807 
			44.911,60.165 44.858,60.217 48.071,63.43 52.154,63.43 		"/>
		<polygon fill="none" points="86.75,50.166 93.348,56.764 97.766,52.344 97.766,47.993 93.346,43.57 		"/>
		<polygon fill="none" points="96.75,60.165 96.695,60.217 97.766,61.287 97.766,56.38 95.361,58.777 		"/>
		<polygon fill="none" points="52.189,50.166 55.562,53.536 58.787,56.762 65.384,50.166 58.787,43.569 		"/>
		<polygon fill="none" points="86.662,67.461 93.348,74.146 97.766,69.727 97.766,65.268 93.318,60.818 		"/>
		<polygon fill="none" points="44.858,22.836 44.911,22.889 43.552,24.248 50.13,30.826 56.732,24.237 55.385,22.889 55.438,22.836 
			52.225,19.624 48.07,19.624 		"/>
		<polygon fill="none" points="48.084,32.867 46.745,31.527 41.509,26.291 34.912,32.888 41.48,39.455 		"/>
		<polygon fill="none" points="24.229,39.482 28.51,35.201 30.825,32.886 29.467,31.527 29.519,31.476 24.229,26.186 18.939,31.475 
			18.991,31.526 17.633,32.888 		"/>
		<polygon fill="none" points="14.179,53.619 14.157,53.598 8.965,58.777 10.352,60.165 10.299,60.219 15.587,65.507 22.237,58.857 
			15.588,52.209 		"/>
		<polygon fill="none" points="20.827,42.885 20.827,42.885 22.186,41.526 15.591,34.934 9.001,41.536 15.589,48.124 		"/>
		<polygon fill="none" points="33.737,35.799 32.869,34.93 26.272,41.526 32.831,48.086 39.435,41.496 		"/>
		<polygon fill="none" points="41.509,60.85 40.098,62.261 40.066,62.229 38.863,63.43 44.09,63.43 		"/>
		<polygon fill="none" points="15.588,69.486 12.163,72.912 19.739,80.488 19.739,72.184 19.011,72.911 		"/>
		<polygon fill="none" points="41.508,43.569 34.912,50.166 41.509,56.762 44.787,53.482 44.743,53.439 48.064,50.126 		"/>
		<polygon fill="none" points="65.363,32.867 58.787,26.291 52.191,32.886 58.76,39.454 		"/>
		<polygon fill="none" points="19.739,69.658 19.739,65.337 17.578,67.497 		"/>
		<polygon fill="none" points="76.066,39.482 82.663,32.886 81.307,31.527 81.355,31.476 76.066,26.186 70.777,31.478 
			70.827,31.527 69.471,32.885 		"/>
		<polygon fill="none" points="38.128,60.186 38.106,60.165 39.465,58.807 32.868,52.209 26.22,58.857 30.793,63.43 34.877,63.43 		
			"/>
		<polygon fill="none" points="29.467,48.809 29.468,48.809 24.229,43.569 17.632,50.167 21.002,53.536 20.95,53.588 24.229,56.867 
			27.561,53.535 27.466,53.439 30.785,50.127 		"/>
		<polygon fill="none" points="6.959,22.213 9.543,19.624 4.368,19.624 		"/>
		<polygon fill="none" points="50.147,34.931 46.824,38.255 43.552,41.526 50.109,48.085 56.714,41.496 		"/>
		<polygon fill="none" points="6.921,39.455 13.524,32.867 6.949,26.291 2.682,30.558 2.682,35.216 		"/>
		<polygon fill="none" points="10.307,22.844 10.352,22.889 8.992,24.248 14.178,29.434 14.179,29.433 15.571,30.824 22.227,24.184 
			17.666,19.624 13.521,19.624 		"/>
		<polygon fill="none" points="26.798,19.624 21.649,19.624 24.221,22.195 		"/>
		<polygon fill="none" points="4.916,24.259 3.547,22.889 3.6,22.836 2.682,21.918 2.682,26.5 		"/>
		<polygon fill="none" points="3.567,60.188 3.547,60.165 4.906,58.807 2.682,56.581 2.682,61.07 		"/>
		
			<rect x="3.823" y="63.446" transform="matrix(-0.7071 -0.7071 0.7071 -0.7071 -31.9889 118.4841)" fill="none" width="9.444" height="4.842"/>
		<polygon fill="none" points="6.949,56.762 13.545,50.167 6.96,43.581 2.682,47.868 2.682,52.495 		"/>
		<polygon fill="none" points="4.876,41.496 2.682,39.301 2.682,43.686 		"/>
		<path fill="#464646" stroke="#464646" stroke-miterlimit="10" d="M93.348,74.146l-6.686-6.686l6.656-6.643l4.447,4.449v-3.98
			l-1.07-1.07l0.055-0.052l-1.389-1.388l2.404-2.397v-4.036l-4.42,4.42l-6.597-6.598l6.595-6.596l4.422,4.423v-4.091l-2.377-2.376
			l2.377-2.377v-2.468l-0.832-0.833l-3.615,3.606l-6.568-6.567l3.609-3.61l-2.043-2.044l-2.198,2.2l-0.001-0.001l-1.41,1.41
			l-6.648-6.648l3.61-3.609l-0.962-0.962h-2.071l-2.575,2.572l-2.572-2.572h-3.983l4.562,4.561l-6.655,6.64l-1.392-1.392
			l-0.002,0.001l-5.186-5.186l1.359-1.358l-0.055-0.053l3.213-3.212h-3.992l-2.578,2.572l-2.571-2.572h-3.981l3.213,3.212
			l-0.053,0.053l1.348,1.348l-6.604,6.589l-6.578-6.579l1.359-1.358l-0.053-0.053l3.212-3.212h-3.98l-0.214,0.213l-2.367,2.367
			l-2.581-2.581h-3.981l3.213,3.212l-0.053,0.053l1.358,1.358l-5.186,5.185l-1.41,1.41l-6.648-6.648l4.571-4.571h-3.994
			l-2.577,2.572l-2.571-2.572h-3.983l4.561,4.561l-6.655,6.64l-1.393-1.392l-0.001,0.001l-5.186-5.186l1.359-1.358l-0.045-0.045
			l3.214-3.22H9.543l-2.584,2.59l-2.591-2.59H2.682v2.294L3.6,22.836l-0.053,0.053l1.369,1.37L2.682,26.5v4.058l4.268-4.267
			l6.575,6.576l-6.604,6.588l-4.239-4.239v4.085l2.194,2.195l-2.194,2.189v4.183l4.278-4.287l6.585,6.586l-6.596,6.595l-4.268-4.267
			v4.086l2.225,2.226l-1.359,1.358l0.021,0.022L2.682,61.07v2.359l0.81,0.81l3.428-3.421l6.678,6.679l-3.424,3.424l1.99,1.991
			l3.425-3.426l3.423,3.425l0.729-0.728v-2.525l-2.161-2.161l2.161-2.16V63.43h1.907l1.171-1.171v0.002l1.41-1.409l1.411,1.409
			l0.001-0.002l1.171,1.171h3.982l-4.573-4.572l6.648-6.647l6.597,6.597l-1.358,1.359l0.021,0.021l-3.251,3.244h3.986l1.203-1.201
			l0.031,0.031l1.411-1.412l2.581,2.582h3.981l-3.213-3.214l0.053-0.052l-1.359-1.359l6.596-6.597l2.525,2.524l4.071,4.072
			l-1.359,1.358l0.021,0.021l-3.252,3.244h4.053l2.58-2.58l1.412,1.411l1.169,1.169h3.979l-3.158-3.158l-0.053-0.055l0.053-0.052
			l-1.358-1.358l6.596-6.596l6.648,6.646l-4.571,4.572h3.98l1.17-1.172l0.002,0.002l1.41-1.41l1.41,1.41l0.002-0.002l1.17,1.172
			h2.059l15.079,15.078l0.964-0.962l-1.412-1.411l2.428-2.428v-3.98L93.348,74.146z M84.707,34.931l6.564,6.566l-6.603,6.589
			l-6.56-6.56L84.707,34.931z M70.777,31.478l5.289-5.292l5.289,5.29l-0.049,0.052l1.355,1.358l-6.598,6.597l-6.596-6.598
			l1.356-1.357L70.777,31.478z M58.787,26.291l6.576,6.576l-6.604,6.587l-6.567-6.568L58.787,26.291z M41.509,26.291l5.236,5.236
			l1.339,1.34l-6.604,6.588l-6.568-6.567L41.509,26.291z M18.939,31.475l5.29-5.289l5.289,5.29l-0.052,0.052l1.358,1.358
			l-2.315,2.315l-4.281,4.281l-6.596-6.595l1.358-1.361L18.939,31.475z M9.001,41.536l6.59-6.603l6.595,6.593l-1.358,1.358l0,0
			l-5.238,5.239L9.001,41.536z M15.587,65.507l-5.288-5.288l0.053-0.054l-1.387-1.388l5.192-5.18l0.021,0.021l1.409-1.41
			l6.649,6.649L15.587,65.507z M27.561,53.535l-3.331,3.332l-3.279-3.279l0.052-0.052l-3.37-3.369l6.598-6.598l5.238,5.239h-0.001
			l1.318,1.318l-3.319,3.312L27.561,53.535z M32.831,48.086l-6.559-6.56l6.597-6.597l0.868,0.869l5.697,5.697L32.831,48.086z
			 M44.787,53.482l-3.278,3.278l-6.597-6.596l6.596-6.597l6.557,6.557l-3.321,3.312L44.787,53.482z M50.109,48.085l-6.558-6.559
			l3.272-3.271l3.323-3.324l6.566,6.565L50.109,48.085z M58.787,56.762l-3.227-3.226l-3.371-3.37l6.598-6.597l6.597,6.597
			L58.787,56.762z M62.189,42.886L62.189,42.886l-1.358-1.359l6.596-6.597l6.597,6.597l-6.597,6.598L62.189,42.886z M76.066,56.866
			l-3.278-3.279l0.052-0.051l-3.369-3.369l1.359-1.358l5.236-5.238l6.558,6.557l-3.319,3.312l0.094,0.096L76.066,56.866z
			 M78.059,58.857l6.648-6.648l1.41,1.41l5.188,5.188l-1.359,1.358l0.021,0.021L84.67,65.47L78.059,58.857z"/>
	</g>
</g>
</svg>
